# xmcd
#
# Track frame offsets:
#	150
#	17420
#	34537
#	49419
#	68770
#	84900
#	103021
#	117218
#	136542
#	149231
#	165413
#	182439
#	201337
#
# Disc length: 2877 seconds
#
# Revision: 1
# Processed by: cddbd v1.5.2PL0 Copyright (c) Steve Scherf et al.
# Submitted via: audiograbber 1.83.01
#
DISCID=a70b3b0d
DTITLE=Charlie McCoy - Smooth Sailing
DYEAR=2013
DGENRE=Country
TTITLE0=Smooth Sailing
TTITLE1=Blue Bayou
TTITLE2=I Love New Orleans Music
TTITLE3=I Told You So
TTITLE4=One Woman
TTITLE5=Ashoken Farewell
TTITLE6=Fannie Mae
TTITLE7=Rainy Night In Georgia
TTITLE8=Concrete Jungle
TTITLE9=From A distance
TTITLE10=Sticks And Stones
TTITLE11=Leona
TTITLE12=Kyoto By Night
EXTD=
EXTT0=
EXTT1=
EXTT2=
EXTT3=
EXTT4=
EXTT5=
EXTT6=
EXTT7=
EXTT8=
EXTT9=
EXTT10=
EXTT11=
EXTT12=
PLAYORDER=
